<?xml version="1.0" encoding="UTF-8"?>
<svg id="katman_2" data-name="katman 2" xmlns="http://www.w3.org/2000/svg" viewBox="0 0 1734 1551.05">
  <defs>
    <style>
      .cls-1 {
        fill: #212a37;
      }

      .cls-1, .cls-2 {
        fill-rule: evenodd;
      }

      .cls-3 {
        letter-spacing: .19em;
      }

      .cls-4 {
        letter-spacing: -.1em;
      }

      .cls-5 {
        letter-spacing: .2em;
      }

      .cls-6 {
        fill: #333;
        font-family: Montserrat-Bold, Montserrat;
        font-size: 203.66px;
        font-weight: 700;
      }

      .cls-7 {
        letter-spacing: .2em;
      }

      .cls-8 {
        letter-spacing: .17em;
      }

      .cls-2, .cls-9 {
        fill: #026597;
      }

      .cls-9 {
        font-family: Montserrat-Medium, Montserrat;
        font-size: 120.78px;
        font-weight: 500;
      }
    </style>
  </defs>
  <g id="Layer_1" data-name="Layer 1">
    <g>
      <path class="cls-2" d="M1324.85,648.11c-65.16,218.26-203.08,390.41-424.37,477.95l-33.52,13.24-33.5-13.24c-224.69-88.88-363.41-265.05-427.29-488.1h137.99c54.59,161.3,157.77,289.15,322.81,359.39,161.64-68.78,263.87-192.83,319.31-349.24h138.57Z"/>
      <path class="cls-1" d="M1359.6,600.64h-123.01v-154.87h108.49c23.29,0,40.57,.11,62.41-9.55,53.88-23.84,86.47-75.19,155.12-76.98,81.12-2.11,176.94,35.24,130.02,46.01-67.25,15.43-162.52,28.49-139.38,117.97,20.77,80.31,111.28,35.3,168.77,21.56,52.18-12.45-72.51,215.51-247.18,99.44-34.72-25.62-71.68-43.56-115.23-43.56h0Z"/>
      <path class="cls-1" d="M374.4,435.62h123.25v154.87h-108.73c-23.29,0-40.57-.12-62.41,9.55-53.88,23.83-86.47,75.19-155.12,76.98-81.12,2.11-176.94-35.25-130.01-46.01,67.25-15.43,162.52-28.48,139.38-117.96-20.76-80.32-111.28-35.3-168.77-21.56-52.18,12.45,72.51-215.51,247.18-99.44,34.73,25.62,71.68,43.56,115.23,43.56h0Z"/>
      <polygon class="cls-1" points="672.58 192.09 866.97 136.98 1061.65 192.16 1142.46 78.09 866.97 0 591.89 77.99 672.58 192.09 672.58 192.09"/>
      <path class="cls-2" d="M1099.02,494.4l-126.41-88.31c-13.62-9.52-32.53-6.17-42.04,7.45l-14.57,20.86c-9.52,13.62-6.15,32.53,7.45,42.05l-56.37,77.35-56.39-77.35c13.61-9.52,16.98-28.43,7.46-42.05l-14.58-20.86c-9.5-13.62-28.41-16.97-42.03-7.45l-126.42,88.31c-13.61,9.52-16.97,28.41-7.46,42.01l14.57,20.89c9.53,13.61,28.43,16.98,42.05,7.46l1.3-.92,87.3,121.13c9.88,14.35,23.55,26.92,41.05,37.68,18.32,11.08,36.03,16.89,53.15,17.44,17.1-.55,34.81-6.36,53.14-17.44,17.49-10.76,31.17-23.33,41.03-37.68l87.3-121.13,1.31,.92c13.62,9.52,32.53,6.15,42.04-7.46l14.58-20.89c9.51-13.6,6.15-32.5-7.47-42.01h0Zm66.09-92.25l71.89-101.26c.09,3.84,.16,7.64,.21,11.38,.43,28.16-.2,56.48-1.95,84.79-.03,.41-.05,.82-.07,1.24h109.89c7.82,0,15.27,.19,22.6-.47,3.83-62.07,2.99-124.76-3.79-181.97-.78-6.66-1.66-13.24-2.61-19.74l-8.52-58.31-.02-.12-154.92-43.92-80.82,114.07-76.14,107.46-3.25-2.28c-13.61-9.51-32.54-6.15-42.04,7.47l-14.59,20.87c-9.5,13.61-6.14,32.51,7.47,42.02l126.42,88.31-.07,.26,.14-.21c13.62,9.45,32.48,6.09,41.97-7.5l14.57-20.87c9.25-13.24,6.32-31.49-6.37-41.24h0Zm-419.41-18.75c13.61-9.52,16.96-28.41,7.46-42.02l-14.59-20.87c-9.5-13.62-28.42-16.98-42.03-7.47l-3.26,2.28-76.04-107.53-80.7-114.1-155.02,43.95-.27,.07-8.54,58.42c-.93,6.35-1.78,12.78-2.55,19.28-6.46,54.25-7.58,113.45-4.42,172.39,2.86,.23,5.74,.36,8.66,.36h123.83c-1.32-24.56-1.8-49.12-1.49-73.55,.06-4.63,.15-9.33,.25-14.09l72.04,101.64c-12.68,9.75-15.62,27.99-6.37,41.24l14.58,20.87c9.5,13.59,28.34,16.96,41.96,7.5l.15,.21-.08-.26,126.43-88.31h0Z"/>
      <text class="cls-6" transform="translate(237.51 1347.61) scale(1.23 1)"><tspan class="cls-4" x="0" y="0">	</tspan><tspan class="cls-7" x="37.6" y="0">M</tspan><tspan class="cls-3" x="272.82" y="0">Y</tspan><tspan class="cls-7" x="449.81" y="0">MEC</tspan></text>
      <text class="cls-9" transform="translate(497.81 1519.77)"><tspan class="cls-5" x="0" y="0">ME</tspan><tspan class="cls-8" x="244.58" y="0">K</tspan><tspan class="cls-5" x="352.2" y="0">ANİK</tspan></text>
    </g>
  </g>
</svg>