<?xml version="1.0" encoding="UTF-8"?>
<svg id="katman_2" data-name="katman 2" xmlns="http://www.w3.org/2000/svg" viewBox="0 0 1135.29 448.64">
  <defs>
    <style>
      .cls-1, .cls-2, .cls-3 {
        fill: #76973d;
      }

      .cls-1, .cls-4 {
        font-size: 176px;
      }

      .cls-1, .cls-3 {
        font-family: Poppins-Regular, Poppins;
      }

      .cls-5 {
        fill: #3d637f;
      }

      .cls-4 {
        font-family: Poppins-Bold, Poppins;
        font-weight: 700;
      }

      .cls-4, .cls-6 {
        fill: #2f404f;
      }

      .cls-7 {
        fill: #70993f;
      }

      .cls-8 {
        fill: #a5bf39;
      }

      .cls-9 {
        fill: #606060;
        font-family: Montserrat-Regular, Montserrat;
        font-size: 70.88px;
      }

      .cls-3 {
        font-size: 175.39px;
      }

      .cls-10 {
        fill: #c9d863;
      }
    </style>
  </defs>
  <g id="Graphics">
    <g id="Logo_Text" data-name="Logo Text">
      <text class="cls-9" transform="translate(489.44 333.31)"><tspan x="0" y="0">MEKANİK</tspan></text>
      <text transform="translate(478.72 254.96)"><tspan><tspan class="cls-4" x="0" y="0">MY</tspan><tspan class="cls-1" x="279.66" y="0">M</tspan><tspan class="cls-3" x="431.2" y="0">EC</tspan></tspan></text>
    </g>
    <g id="Logo_Icon" data-name="Logo Icon">
      <g>
        <g>
          <polygon class="cls-2" points="194.28 448.64 194.27 448.64 155.42 426.2 155.42 426.17 155.43 336.48 116.57 314.05 116.57 403.77 77.72 381.35 77.71 381.33 77.72 246.75 194.27 314.05 194.28 448.64"/>
          <polygon class="cls-2" points="0 112.18 0 336.49 38.86 358.92 38.86 179.46 38.86 179.45 38.87 179.46 194.27 269.17 194.28 224.33 194.27 224.32 0 112.18"/>
          <polygon class="cls-2" points="194.29 44.85 194.29 44.88 194.25 44.86 194.25 89.73 271.96 134.59 310.82 112.16 194.29 44.85"/>
        </g>
        <polygon class="cls-7" points="271.98 403.77 233.13 381.36 233.13 336.48 271.98 314.05 271.98 403.77"/>
      </g>
      <polygon class="cls-8" points="271.98 224.32 310.81 246.75 194.27 314.04 194.27 314.05 77.72 246.75 116.59 224.31 194.27 269.17 271.98 224.32"/>
      <g>
        <polygon class="cls-6" points="388.55 336.48 349.69 358.92 349.69 179.44 194.28 269.17 194.27 269.17 194.28 224.33 388.52 112.16 388.55 336.48"/>
        <polygon class="cls-6" points="310.84 291.61 310.84 381.35 271.98 403.77 272 358.92 272 358.91 271.98 314.05 233.13 336.48 233.13 426.21 194.28 448.64 194.28 403.77 194.3 403.77 194.28 358.91 194.27 314.05 194.28 314.04 233.11 291.63 271.98 269.17 310.82 246.75 310.84 291.61"/>
      </g>
      <g>
        <polygon class="cls-10" points="116.57 403.77 155.43 381.36 155.43 336.48 116.57 314.05 116.57 403.77"/>
        <polygon class="cls-10" points="38.89 179.47 38.88 179.48 38.88 358.93 38.89 358.93 77.73 336.52 77.73 246.73 116.59 224.31 38.89 179.47"/>
        <polygon class="cls-10" points="77.69 112.16 116.54 134.6 194.25 89.73 194.25 44.86 77.69 112.16"/>
      </g>
      <path class="cls-5" d="M194.26,0L.02,112.16l194.26,112.16,194.25-112.16L194.26,0Zm77.7,134.59l-38.85-22.44-38.86-22.43-77.71,44.87-38.85-22.44L194.25,44.86l38.85,22.44,38.86,22.43,38.85,22.44-38.85,22.43Z"/>
      <polygon class="cls-2" points="349.69 179.44 349.69 358.91 349.68 358.92 310.84 336.51 310.82 246.75 310.82 246.73 271.98 224.32 349.69 179.44"/>
    </g>
  </g>
</svg>